# xmcd
#
# Track frame offsets: 
#        150
#        13614
#        26838
#        44362
#        56768
#        76992
#        87232
#        99312
#        110344
#        125934
#        146708
#        157404
#        174960
#        186494
#        201162
#
# Disc length: 2884 seconds
#
# Revision: 0
# Processed by: cddbd v1.5.2PL0 Copyright (c) Steve Scherf et al.
# Submitted via: ExactAudioCopy v0.99pb5
#
DISCID=d60b420f
DTITLE=Lost Country - When We Danced
DYEAR=2009
DGENRE=Alternative
TTITLE0=Alone With The Blues
TTITLE1=Hybrid Baby
TTITLE2=When We Danced
TTITLE3=Baby Let's Go
TTITLE4=Nowhere To Go
TTITLE5=It Don't Work Anymore
TTITLE6=It Sure Is Blue
TTITLE7=Got My Foot Caught In The Door
TTITLE8=It Takes Too Long
TTITLE9=Like A Wheel
TTITLE10=Mammy Beulah
TTITLE11=I Could Swear It Wasn't Raining
TTITLE12=Little Creeps
TTITLE13=Right What's Left
TTITLE14=Blow Mold Baby Jesus
EXTD=
EXTT0=
EXTT1=
EXTT2=
EXTT3=
EXTT4=
EXTT5=
EXTT6=
EXTT7=
EXTT8=
EXTT9=
EXTT10=
EXTT11=
EXTT12=
EXTT13=
EXTT14=
PLAYORDER=
